<svg width="35" height="35" viewBox="0 0 35 35" fill="none" xmlns="http://www.w3.org/2000/svg">
<g filter="url(#filter0_d_11_285)">
<g filter="url(#filter1_d_11_285)">
<path d="M15.9789 18.0164C15.911 17.9487 15.8572 17.8682 15.8204 17.7797C15.7836 17.6911 15.7647 17.5961 15.7647 17.5002C15.7647 17.4043 15.7836 17.3093 15.8204 17.2207C15.8572 17.1321 15.911 17.0517 15.9789 16.9839L22.6668 10.2975C23.0772 9.8873 23.3078 9.33091 23.308 8.7507C23.3081 8.17049 23.0777 7.61399 22.6676 7.20362C22.2574 6.79326 21.701 6.56264 21.1208 6.5625C20.5406 6.56236 19.9841 6.79272 19.5737 7.20289L12.8858 13.8908C11.9303 14.849 11.3937 16.147 11.3937 17.5002C11.3937 18.8534 11.9303 20.1514 12.8858 21.1096L19.5737 27.7975C19.9841 28.2077 20.5406 28.438 21.1208 28.4379C21.701 28.4377 22.2574 28.2071 22.6676 27.7967C23.0777 27.3864 23.3081 26.8299 23.308 26.2497C23.3078 25.6695 23.0772 25.1131 22.6668 24.7029L15.9789 18.0164Z" fill="#C1C1C1"/>
</g>
</g>
<defs>
<filter id="filter0_d_11_285" x="-4" y="-2" width="43" height="43" filterUnits="userSpaceOnUse" color-interpolation-filters="sRGB">
<feFlood flood-opacity="0" result="BackgroundImageFix"/>
<feColorMatrix in="SourceAlpha" type="matrix" values="0 0 0 0 0 0 0 0 0 0 0 0 0 0 0 0 0 0 127 0" result="hardAlpha"/>
<feOffset dy="2"/>
<feGaussianBlur stdDeviation="2"/>
<feComposite in2="hardAlpha" operator="out"/>
<feColorMatrix type="matrix" values="0 0 0 0 0 0 0 0 0 0 0 0 0 0 0 0 0 0 0.25 0"/>
<feBlend mode="normal" in2="BackgroundImageFix" result="effect1_dropShadow_11_285"/>
<feBlend mode="normal" in="SourceGraphic" in2="effect1_dropShadow_11_285" result="shape"/>
</filter>
<filter id="filter1_d_11_285" x="7.39368" y="4.5625" width="19.9143" height="29.8755" filterUnits="userSpaceOnUse" color-interpolation-filters="sRGB">
<feFlood flood-opacity="0" result="BackgroundImageFix"/>
<feColorMatrix in="SourceAlpha" type="matrix" values="0 0 0 0 0 0 0 0 0 0 0 0 0 0 0 0 0 0 127 0" result="hardAlpha"/>
<feOffset dy="2"/>
<feGaussianBlur stdDeviation="2"/>
<feComposite in2="hardAlpha" operator="out"/>
<feColorMatrix type="matrix" values="0 0 0 0 0 0 0 0 0 0 0 0 0 0 0 0 0 0 0.25 0"/>
<feBlend mode="normal" in2="BackgroundImageFix" result="effect1_dropShadow_11_285"/>
<feBlend mode="normal" in="SourceGraphic" in2="effect1_dropShadow_11_285" result="shape"/>
</filter>
</defs>
</svg>
