<svg width="44" height="43" viewBox="0 0 44 43" fill="none" xmlns="http://www.w3.org/2000/svg">
<g filter="url(#filter0_d_11_243)">
<circle cx="22" cy="20" r="17" fill="#9E2A2B"/>
</g>
<path fill-rule="evenodd" clip-rule="evenodd" d="M14.6587 12.659C14.9443 12.3734 15.4072 12.3734 15.6928 12.659L22.0001 18.9663L28.3075 12.659C28.593 12.3734 29.056 12.3734 29.3415 12.659C29.6271 12.9445 29.6271 13.4075 29.3415 13.693L23.0342 20.0004L29.3415 26.3077C29.6271 26.5933 29.6271 27.0562 29.3415 27.3418C29.056 27.6273 28.593 27.6273 28.3075 27.3418L22.0001 21.0344L15.6928 27.3418C15.4072 27.6273 14.9443 27.6273 14.6587 27.3418C14.3732 27.0562 14.3732 26.5933 14.6587 26.3077L20.9661 20.0004L14.6587 13.693C14.3732 13.4075 14.3732 12.9445 14.6587 12.659Z" fill="white"/>
<defs>
<filter id="filter0_d_11_243" x="0.75" y="0.166667" width="42.5" height="42.5" filterUnits="userSpaceOnUse" color-interpolation-filters="sRGB">
<feFlood flood-opacity="0" result="BackgroundImageFix"/>
<feColorMatrix in="SourceAlpha" type="matrix" values="0 0 0 0 0 0 0 0 0 0 0 0 0 0 0 0 0 0 127 0" result="hardAlpha"/>
<feOffset dy="1.41667"/>
<feGaussianBlur stdDeviation="2.125"/>
<feComposite in2="hardAlpha" operator="out"/>
<feColorMatrix type="matrix" values="0 0 0 0 0 0 0 0 0 0 0 0 0 0 0 0 0 0 0.3 0"/>
<feBlend mode="normal" in2="BackgroundImageFix" result="effect1_dropShadow_11_243"/>
<feBlend mode="normal" in="SourceGraphic" in2="effect1_dropShadow_11_243" result="shape"/>
</filter>
</defs>
</svg>
