<svg width="22" height="22" viewBox="0 0 22 22" fill="none" xmlns="http://www.w3.org/2000/svg">
<g clip-path="url(#clip0_11_283)">
<g filter="url(#filter0_d_11_283)">
<path d="M4.70079 7.47452C4.70079 9.5429 4.70079 12.4574 4.70079 13.8677C4.7948 15.0899 4.88882 16.6882 4.98284 17.8164C5.07685 19.1326 6.20506 20.1668 7.5213 20.1668H14.4786C15.7948 20.1668 16.923 19.1326 17.017 17.8164C17.111 16.6882 17.2051 15.0899 17.2991 13.8677C17.3931 12.4574 17.2991 9.5429 17.2991 7.47452H4.70079Z" fill="#B5B5B5"/>
<path d="M17.5812 4.65401H15.2307L14.4786 3.24375C14.0085 2.3976 13.1624 1.8335 12.2222 1.8335H9.96577C9.0256 1.8335 8.08543 2.3976 7.70936 3.24375L6.76919 4.65401H4.41876C4.04269 4.65401 3.66663 5.03008 3.66663 5.40615C3.66663 5.78221 4.04269 6.15828 4.41876 6.15828H17.5812C17.9572 6.15828 18.3333 5.87623 18.3333 5.40615C18.3333 4.93606 17.9572 4.65401 17.5812 4.65401ZM8.36748 4.65401L8.83757 3.90187C9.0256 3.5258 9.40167 3.24375 9.87175 3.24375H12.1282C12.5983 3.24375 12.9743 3.43179 13.1624 3.90187L13.6324 4.65401H8.36748Z" fill="#B5B5B5"/>
</g>
</g>
<defs>
<filter id="filter0_d_11_283" x="2.66663" y="1.8335" width="16.6666" height="20.3335" filterUnits="userSpaceOnUse" color-interpolation-filters="sRGB">
<feFlood flood-opacity="0" result="BackgroundImageFix"/>
<feColorMatrix in="SourceAlpha" type="matrix" values="0 0 0 0 0 0 0 0 0 0 0 0 0 0 0 0 0 0 127 0" result="hardAlpha"/>
<feOffset dy="1"/>
<feGaussianBlur stdDeviation="0.5"/>
<feComposite in2="hardAlpha" operator="out"/>
<feColorMatrix type="matrix" values="0 0 0 0 0 0 0 0 0 0 0 0 0 0 0 0 0 0 0.29 0"/>
<feBlend mode="normal" in2="BackgroundImageFix" result="effect1_dropShadow_11_283"/>
<feBlend mode="normal" in="SourceGraphic" in2="effect1_dropShadow_11_283" result="shape"/>
</filter>
<clipPath id="clip0_11_283">
<rect width="22" height="22" fill="white"/>
</clipPath>
</defs>
</svg>
