<svg width="22" height="22" viewBox="0 0 22 22" fill="none" xmlns="http://www.w3.org/2000/svg">
<g clip-path="url(#clip0_11_233)">
<g filter="url(#filter0_d_11_233)">
<path d="M19.2397 3.928L18.0038 2.68681C16.8708 1.54906 15.1199 1.54906 13.9869 2.68681L11.927 4.85888L17.1798 10.1339L19.3427 7.96185C19.8577 7.44469 20.1667 6.72066 20.1667 5.99664C20.1667 5.27261 19.7547 4.44516 19.2397 3.928Z" fill="#C1C1C1"/>
<path d="M14.9139 10.0305L10.794 5.8932L2.65734 14.0643C2.14236 14.5815 1.83337 15.3055 1.83337 16.133V19.3394C1.83337 19.7531 2.14236 20.1668 2.65734 20.1668H5.95322C6.6742 20.1668 7.39517 19.8565 8.01315 19.3394L16.1499 11.1682L14.9139 10.0305Z" fill="#C1C1C1"/>
</g>
</g>
<defs>
<filter id="filter0_d_11_233" x="-2.16663" y="1.8335" width="26.3334" height="26.3335" filterUnits="userSpaceOnUse" color-interpolation-filters="sRGB">
<feFlood flood-opacity="0" result="BackgroundImageFix"/>
<feColorMatrix in="SourceAlpha" type="matrix" values="0 0 0 0 0 0 0 0 0 0 0 0 0 0 0 0 0 0 127 0" result="hardAlpha"/>
<feOffset dy="4"/>
<feGaussianBlur stdDeviation="2"/>
<feComposite in2="hardAlpha" operator="out"/>
<feColorMatrix type="matrix" values="0 0 0 0 0 0 0 0 0 0 0 0 0 0 0 0 0 0 0.25 0"/>
<feBlend mode="normal" in2="BackgroundImageFix" result="effect1_dropShadow_11_233"/>
<feBlend mode="normal" in="SourceGraphic" in2="effect1_dropShadow_11_233" result="shape"/>
</filter>
<clipPath id="clip0_11_233">
<rect width="22" height="22" fill="white"/>
</clipPath>
</defs>
</svg>
