<svg width="32" height="26" viewBox="0 0 32 26" fill="none" xmlns="http://www.w3.org/2000/svg">
<g filter="url(#filter0_d_11_252)">
<path d="M4 3.5C4 2.67031 4.76607 2 5.71429 2H26.2857C27.2339 2 28 2.67031 28 3.5C28 4.32969 27.2339 5 26.2857 5H5.71429C4.76607 5 4 4.32969 4 3.5ZM4 11C4 10.1703 4.76607 9.5 5.71429 9.5H26.2857C27.2339 9.5 28 10.1703 28 11C28 11.8297 27.2339 12.5 26.2857 12.5H5.71429C4.76607 12.5 4 11.8297 4 11ZM28 18.5C28 19.3297 27.2339 20 26.2857 20H5.71429C4.76607 20 4 19.3297 4 18.5C4 17.6703 4.76607 17 5.71429 17H26.2857C27.2339 17 28 17.6703 28 18.5Z" fill="#C1C1C1"/>
</g>
<defs>
<filter id="filter0_d_11_252" x="0" y="0" width="32" height="26" filterUnits="userSpaceOnUse" color-interpolation-filters="sRGB">
<feFlood flood-opacity="0" result="BackgroundImageFix"/>
<feColorMatrix in="SourceAlpha" type="matrix" values="0 0 0 0 0 0 0 0 0 0 0 0 0 0 0 0 0 0 127 0" result="hardAlpha"/>
<feOffset dy="2"/>
<feGaussianBlur stdDeviation="2"/>
<feComposite in2="hardAlpha" operator="out"/>
<feColorMatrix type="matrix" values="0 0 0 0 0 0 0 0 0 0 0 0 0 0 0 0 0 0 0.25 0"/>
<feBlend mode="normal" in2="BackgroundImageFix" result="effect1_dropShadow_11_252"/>
<feBlend mode="normal" in="SourceGraphic" in2="effect1_dropShadow_11_252" result="shape"/>
</filter>
</defs>
</svg>
