<svg width="20" height="20" viewBox="0 0 20 20" fill="none" xmlns="http://www.w3.org/2000/svg">
<g clip-path="url(#clip0_11_254)">
<g filter="url(#filter0_d_11_254)">
<path d="M17.3276 9.18787C17.2414 8.07676 16.3793 7.22206 15.2586 7.13659C14.9138 7.13659 14.4828 7.05112 14.1379 7.05112V4.91437C14.1379 3.1195 12.6724 1.6665 10.8621 1.6665H9.13793C7.32759 1.6665 5.86207 3.1195 5.86207 4.91437V7.05112C5.43103 7.05112 5.08621 7.13659 4.74138 7.13659C3.62069 7.22206 2.75862 8.07676 2.67241 9.18787C2.58621 10.128 2.5 11.581 2.5 12.6067C2.5 13.6323 2.58621 14.9998 2.67241 16.0255C2.75862 17.1366 3.62069 17.9913 4.74138 18.0768C6.2931 18.2477 8.36207 18.3332 10 18.3332C11.6379 18.3332 13.7069 18.1622 15.2586 18.0768C16.3793 17.9913 17.2414 17.1366 17.3276 16.0255C17.4138 15.0853 17.5 13.7178 17.5 12.6067C17.5 11.4956 17.4138 10.2135 17.3276 9.18787ZM10.6897 13.4614C10.6897 13.8033 10.431 14.1451 10 14.1451C9.56897 14.1451 9.31034 13.8887 9.31034 13.4614V11.752C9.31034 11.4101 9.56897 11.0682 10 11.0682C10.431 11.0682 10.6897 11.3246 10.6897 11.752V13.4614ZM12.7586 6.96565C11.8103 6.88018 10.8621 6.79471 10 6.79471C9.13793 6.79471 8.18966 6.79471 7.24138 6.88018V4.91437C7.24138 3.88873 8.10345 3.03403 9.13793 3.03403H10.8621C11.8966 3.03403 12.7586 3.88873 12.7586 4.91437V6.96565Z" fill="#033043"/>
</g>
</g>
<defs>
<filter id="filter0_d_11_254" x="0.5" y="0.666504" width="19" height="20.6665" filterUnits="userSpaceOnUse" color-interpolation-filters="sRGB">
<feFlood flood-opacity="0" result="BackgroundImageFix"/>
<feColorMatrix in="SourceAlpha" type="matrix" values="0 0 0 0 0 0 0 0 0 0 0 0 0 0 0 0 0 0 127 0" result="hardAlpha"/>
<feOffset dy="1"/>
<feGaussianBlur stdDeviation="1"/>
<feComposite in2="hardAlpha" operator="out"/>
<feColorMatrix type="matrix" values="0 0 0 0 0 0 0 0 0 0 0 0 0 0 0 0 0 0 0.3 0"/>
<feBlend mode="normal" in2="BackgroundImageFix" result="effect1_dropShadow_11_254"/>
<feBlend mode="normal" in="SourceGraphic" in2="effect1_dropShadow_11_254" result="shape"/>
</filter>
<clipPath id="clip0_11_254">
<rect width="20" height="20" fill="white"/>
</clipPath>
</defs>
</svg>
