<svg width="53" height="53" viewBox="0 0 53 53" fill="none" xmlns="http://www.w3.org/2000/svg">
<g filter="url(#filter0_d_11_249)">
<circle cx="26.5" cy="25.5" r="22.5" fill="#6682C8"/>
<path d="M27.2256 24.5271C30.5147 24.5271 33.181 21.8745 33.181 18.6022C33.181 15.3299 30.5147 12.6772 27.2256 12.6772C23.9366 12.6772 21.2703 15.3299 21.2703 18.6022C21.2703 21.8745 23.9366 24.5271 27.2256 24.5271Z" fill="#033043"/>
<path d="M30.3274 26.996H24.1239C20.5259 26.996 17.5482 29.9585 17.5482 33.5381C17.5482 34.4022 17.9204 35.1428 18.6648 35.5131C19.7815 36.1303 22.2629 36.8709 27.2256 36.8709C32.1884 36.8709 34.6698 36.1303 35.7864 35.5131C36.4068 35.1428 36.9031 34.4022 36.9031 33.5381C36.9031 29.835 33.9254 26.996 30.3274 26.996Z" fill="#033043"/>
</g>
<defs>
<filter id="filter0_d_11_249" x="0" y="0" width="53" height="53" filterUnits="userSpaceOnUse" color-interpolation-filters="sRGB">
<feFlood flood-opacity="0" result="BackgroundImageFix"/>
<feColorMatrix in="SourceAlpha" type="matrix" values="0 0 0 0 0 0 0 0 0 0 0 0 0 0 0 0 0 0 127 0" result="hardAlpha"/>
<feOffset dy="1"/>
<feGaussianBlur stdDeviation="2"/>
<feComposite in2="hardAlpha" operator="out"/>
<feColorMatrix type="matrix" values="0 0 0 0 0 0 0 0 0 0 0 0 0 0 0 0 0 0 0.3 0"/>
<feBlend mode="normal" in2="BackgroundImageFix" result="effect1_dropShadow_11_249"/>
<feBlend mode="normal" in="SourceGraphic" in2="effect1_dropShadow_11_249" result="shape"/>
</filter>
</defs>
</svg>
