<svg width="20" height="20" viewBox="0 0 20 20" fill="none" xmlns="http://www.w3.org/2000/svg">
<path d="M10 9.82977C12.2658 9.82977 14.1026 8.00236 14.1026 5.74814C14.1026 3.49391 12.2658 1.6665 10 1.6665C7.73426 1.6665 5.89748 3.49391 5.89748 5.74814C5.89748 8.00236 7.73426 9.82977 10 9.82977Z" fill="#033043"/>
<path d="M12.1368 11.5305H7.86329C5.38466 11.5305 3.33337 13.5713 3.33337 16.0373C3.33337 16.6326 3.58978 17.1428 4.1026 17.3979C4.87184 17.8231 6.58124 18.3333 10 18.3333C13.4188 18.3333 15.1282 17.8231 15.8975 17.3979C16.3248 17.1428 16.6667 16.6326 16.6667 16.0373C16.6667 13.4863 14.6154 11.5305 12.1368 11.5305Z" fill="#033043"/>
</svg>
